<?xml version="1.0" encoding="UTF-8" standalone="no"?>
<!-- Created with Inkscape (http://www.inkscape.org/) -->

<svg
   width="600mm"
   height="200mm"
   viewBox="0 0 569.8456 189.94854"
   version="1.1"
   id="svg5"
   xml:space="preserve"
   xmlns="http://www.w3.org/2000/svg"
   xmlns:svg="http://www.w3.org/2000/svg"><defs
     id="defs2" /><g
     id="layer1"
     transform="matrix(0.98239652,0,0,0.84420819,5.0156424,14.587637)"
     style="stroke-width:1.04288823;stroke-dasharray:none"><path
       style="fill:none;fill-opacity:1;fill-rule:evenodd;stroke:#ff4136;stroke-width:1.04288823;stroke-dasharray:none;stroke-opacity:1;paint-order:stroke fill markers"
       d="m -0.0196197,94.975824 c 0,0 184.8238697,-89.7590846 284.9424297,-89.7590831 100.11856,1.5e-6 284.9424,89.7590831 284.9424,89.7590831 0,0 -184.82385,89.759076 -284.9424,89.759076 -100.11856,0 -284.9424297,-89.759076 -284.9424297,-89.759076 z"
       id="path297" /><path
       style="fill:none;fill-opacity:1;fill-rule:evenodd;stroke:#ff851b;stroke-width:1.04288823;stroke-dasharray:none;stroke-opacity:1;paint-order:stroke fill markers"
       d="m 0,94.974268 c 0,0 92.405567,-47.48713 142.4614,-47.487131 50.05584,-10e-7 142.46141,47.487131 142.46141,47.487131 0,0 92.40556,-47.487131 142.46139,-47.487131 50.05583,0 142.46139,47.487131 142.46139,47.487131 0,0 -92.40556,47.487132 -142.46139,47.487132 -50.05583,0 -142.46139,-47.487132 -142.46139,-47.487132 0,0 -92.40557,47.487132 -142.46141,47.487132 C 92.405567,142.4614 0,94.974268 0,94.974268 Z"
       id="path299" /><path
       style="fill:none;fill-opacity:1;fill-rule:evenodd;stroke:#ffdc00;stroke-width:1.04288823;stroke-dasharray:none;stroke-opacity:1;paint-order:stroke fill markers"
       d="m -0.28248066,94.795464 c 0,0 61.51728166,-33.06219 95.06842766,-33.06219 33.551143,0 95.068423,33.06219 95.068423,33.06219 0,0 61.51729,-33.062192 95.06844,-33.06219 33.55114,2e-6 95.06841,33.06219 95.06841,33.06219 0,0 61.51729,-33.062192 95.06844,-33.06219 33.55114,2e-6 95.06841,33.06219 95.06841,33.06219 0,0 -61.51727,33.062186 -95.06841,33.062186 -33.55115,0 -95.06844,-33.062186 -95.06844,-33.062186 0,0 -61.51727,33.062186 -95.06841,33.062186 -33.55115,0 -95.06844,-33.062186 -95.06844,-33.062186 0,0 -61.51728,33.062186 -95.068423,33.062186 -33.551145,0 -95.06842766,-33.062186 -95.06842766,-33.062186 z"
       id="path301" /><path
       style="fill:none;fill-opacity:1;fill-rule:evenodd;stroke:#01ff70;stroke-width:1.04288823;stroke-dasharray:none;stroke-opacity:1;paint-order:stroke fill markers"
       d="m -0.14360526,94.974268 c 0,0 46.29051726,-23.136878 71.26660326,-23.136878 24.976086,0 71.266602,23.136878 71.266602,23.136878 0,0 46.29051,-23.136877 71.2666,-23.136878 24.97609,-10e-7 71.26661,23.136878 71.26661,23.136878 0,0 46.29051,-23.136877 71.26659,-23.136878 24.97609,-10e-7 71.26661,23.136878 71.26661,23.136878 0,0 49.53591,-23.657278 76.0177,-23.136878 23.47034,0.461221 66.51549,23.136878 66.51549,23.136878 0,0 -43.04515,22.675652 -66.51549,23.136872 -26.48179,0.5204 -76.0177,-23.136872 -76.0177,-23.136872 0,0 -46.29052,23.136872 -71.26661,23.136872 -24.97608,0 -71.26659,-23.136872 -71.26659,-23.136872 0,0 -46.29052,23.136872 -71.26661,23.136872 -24.97608,0 -71.2666,-23.136872 -71.2666,-23.136872 0,0 -46.290517,23.136872 -71.266602,23.136872 -24.976085,0 -71.26660326,-23.136872 -71.26660326,-23.136872 z"
       id="path423" /><path
       style="fill:none;fill-opacity:1;fill-rule:evenodd;stroke:#39cccc;stroke-width:1.04288823;stroke-dasharray:none;stroke-opacity:1;paint-order:stroke fill markers"
       d="m 0,94.974267 c 0,0 36.962226,-18.994853 56.984559,-18.994853 20.022334,0 56.984561,18.994853 56.984561,18.994853 0,0 36.96223,-18.994853 56.98456,-18.994853 20.02233,0 56.98456,18.994853 56.98456,18.994853 0,0 36.96223,-18.994855 56.98457,-18.994853 20.02233,2e-6 56.98454,18.994853 56.98454,18.994853 0,0 36.96224,-18.994855 56.98458,-18.994853 20.02233,2e-6 56.98454,18.994853 56.98454,18.994853 0,0 36.96223,-18.994854 56.98457,-18.994853 20.02233,10e-7 56.98455,18.994853 56.98455,18.994853 0,0 -36.96222,18.994853 -56.98455,18.994853 -20.02234,0 -56.98457,-18.994853 -56.98457,-18.994853 0,0 -36.96221,18.994853 -56.98454,18.994853 -20.02234,0 -56.98458,-18.994853 -56.98458,-18.994853 0,0 -36.96221,18.994853 -56.98454,18.994853 -20.02234,0 -56.98457,-18.994853 -56.98457,-18.994853 0,0 -36.96223,18.994853 -56.98456,18.994853 -20.02233,0 -56.98456,-18.994853 -56.98456,-18.994853 0,0 -36.962227,18.994853 -56.984561,18.994853 C 36.962226,113.96912 0,94.974267 0,94.974267 Z"
       id="path425" /></g></svg>
